<?xml version="1.0" encoding="utf-8"?>
<svg viewBox="437.638 185 130 130" xmlns="http://www.w3.org/2000/svg" xmlns:bx="https://boxy-svg.com">
  <rect x="185.408" y="141" width="130" height="130" style="stroke: rgb(0, 0, 0); stroke-width: 0px; fill: rgb(26, 32, 55);" transform="matrix(1, 0, 0, 1, 252.230484, 44.000008)"/>
  <path d="M 493.027 212.327 L 512.252 212.327 C 505.793 241.606 505.079 258.394 512.252 287.673 L 493.027 287.673 C 499.895 258.396 499.788 241.607 493.027 212.327 L 493.027 212.327 Z M 484.144 254.176 L 468.918 273.876 L 460.465 267.087 L 469.178 255.415 L 441.199 255.423 L 441.199 244.603 L 469.186 244.589 L 460.473 232.909 L 468.927 226.121 L 483.995 245.619 C 486.516 248.877 486.717 250.845 484.144 254.176 L 484.144 254.176 Z M 521.135 254.176 L 536.361 273.876 L 544.814 267.087 L 536.099 255.415 L 564.078 255.423 L 564.078 244.603 L 536.092 244.589 L 544.806 232.909 L 536.352 226.121 L 521.284 245.619 C 518.762 248.877 518.561 250.845 521.135 254.176 L 521.135 254.176 Z" style="paint-order: fill; stroke-miterlimit: 1; stroke-linecap: square; stroke-width: 0px; fill-rule: evenodd; fill: rgb(69, 204, 203);" bx:origin="0.500004 0.68685"/>
</svg>